<?xml version="1.0" encoding="utf-8"?>
<!-- Generator: Adobe Illustrator 19.0.0, SVG Export Plug-In . SVG Version: 6.00 Build 0)  -->
<svg version="1.1" id="Camada_1" xmlns="http://www.w3.org/2000/svg" xmlns:xlink="http://www.w3.org/1999/xlink" x="0px" y="0px"
	 viewBox="-719 151.9 160.5 298.1" style="enable-background:new -719 151.9 160.5 298.1;" xml:space="preserve">
<g>
	<path d="M-647.5,347.4c3.1-0.2,6-0.3,8.8-0.3c2.8,0,5.7,0.1,8.8,0.3l-8.8-51.4L-647.5,347.4z"/>
	<path d="M-596.5,274.8c-1.8,1.2-4,1.9-6.2,1.9c-3.4,0-6.6-1.6-8.7-4.2l13.4,78.4c21.1,3,39.5,6.8,39.5,6.8s-6.7-51.9-21.7-97
		C-584.2,265.5-589.6,270.1-596.5,274.8z"/>
	<path d="M-679.5,350.8l13.4-78.4c-2.1,2.7-5.3,4.2-8.7,4.2c-2.2,0-4.3-0.7-6.1-1.9c-6.9-4.7-12.2-9.3-16.3-14.1
		c-15,45.1-21.7,97-21.7,97S-700.6,353.9-679.5,350.8z"/>
	<path d="M-595.6,244.7c2.2-3.1,2.5-5,2.5-6.3c0-1.6-0.6-3.1-2-5c-1.5-2-3.8-4.2-6.7-6.2c-0.3-0.2-0.6-0.5-1-0.7l-7.2,30.9
		c0.4-0.3,0.8-0.6,1.2-0.9C-601.2,251.4-597.4,247.3-595.6,244.7z"/>
	<path d="M-682.3,233.3c-1.5,2-2.1,3.6-2.2,5.2c0,1.2,0.3,3.1,2.5,6.2c1.8,2.5,5.6,6.7,13.2,11.8c0.4,0.3,0.8,0.6,1.2,0.9l-7.2-30.9
		C-678,228.8-680.7,231.2-682.3,233.3z"/>
	<ellipse cx="-638.7" cy="174.4" rx="22.5" ry="22.5"/>
	<path d="M-679.9,273.1c1.5,1,3.3,1.5,5,1.5c2.9,0,5.7-1.4,7.5-4c2.8-4.1,1.7-9.7-2.4-12.5c-7-4.7-11.4-9-13.7-12.3
		c-2.4-3.4-2.9-5.6-2.9-7.4c0-2,0.7-4,2.5-6.4c2.3-3.1,6.5-6.3,10.4-8.7l10.3,43.9c-0.1,0.5-0.3,1-0.4,1.5l-18.1,105.8
		c-1.3,7.4,3.7,14.3,11,15.6c0.8,0.1,1.5,0.2,2.3,0.2c6.5,0,12.2-4.6,13.3-11.2l15.5-90.9h1.4l15.5,90.9c1.1,6.6,6.8,11.2,13.3,11.2
		c0.8,0,1.5-0.1,2.3-0.2c7.3-1.3,12.3-8.2,11-15.6L-614,268.8c-0.1-0.5-0.2-1-0.4-1.5l10.3-43.8c1.1,0.7,2.3,1.4,3.4,2.2
		c2.9,2,5.5,4.4,7.2,6.7c1.7,2.3,2.4,4.3,2.4,6.2c0,1.8-0.5,4-2.9,7.4c-2.4,3.3-6.7,7.6-13.7,12.3c-4.1,2.8-5.2,8.4-2.4,12.5
		c1.7,2.6,4.6,4,7.5,4c1.7,0,3.5-0.5,5-1.5c8.2-5.6,14.2-11.1,18.3-16.8c4.1-5.7,6.3-11.9,6.2-17.8c0-6.9-2.8-12.8-6.2-17.3
		c-5.2-6.8-12-11.3-17.6-14.4c-5.5-3.1-9.8-4.7-10.1-4.8c-1.3-0.5-2.5-0.6-3.8-0.5c-0.5-0.1-1-0.1-1.5-0.1h-52.9
		c-0.5,0-1,0.1-1.5,0.1c-1.3-0.1-2.5,0.1-3.8,0.5c-0.4,0.2-7.9,2.9-16,8.4c-4,2.8-8.2,6.2-11.7,10.8c-3.4,4.5-6.2,10.4-6.2,17.3
		c0,6,2.1,12.2,6.2,17.8C-694.1,262.1-688.1,267.5-679.9,273.1z"/>
</g>
</svg>
